<svg width="87" height="79" viewBox="0 0 87 79" fill="none" xmlns="http://www.w3.org/2000/svg">
<path fill-rule="evenodd" clip-rule="evenodd" d="M9.16732 65.25V9.45833H60.6673V65.25C60.6673 66.7548 60.9255 68.1993 61.3999 69.5417H13.459C11.0888 69.5417 9.16732 67.6202 9.16732 65.25ZM73.5423 78.125H13.459C6.34832 78.125 0.583984 72.3607 0.583984 65.25V0.875H60.6673H64.959H69.2507L69.2506 22.3333H86.4173V26.625V30.9167V65.25C86.4173 72.3607 80.653 78.125 73.5423 78.125ZM69.2506 30.9167H77.834V65.25C77.834 67.6202 75.9125 69.5417 73.5423 69.5417C71.1721 69.5417 69.2507 67.6202 69.2507 65.25L69.2506 30.9167ZM34.9173 18.0417V35.2083H17.7507V18.0417H34.9173ZM52.084 30.9167V22.3333H39.209V30.9167H52.084ZM52.084 39.5V48.0833H17.7507V39.5H52.084ZM52.084 60.9583V52.375H17.7507V60.9583H52.084Z" fill="white"/>
</svg>
