<svg id="Capa_1" enable-background="new 0 0 512 512" height="512" viewBox="0 0 512 512" width="512" xmlns="http://www.w3.org/2000/svg"><g><g><path d="m489.236 391.806h-16.29c-1.679-5.962-4.052-11.633-7.02-16.924l11.526-11.526c2.945-2.945 2.945-7.72 0-10.666l-19.331-19.331c-2.945-2.945-7.72-2.945-10.665 0l-11.526 11.526c-5.292-2.968-10.962-5.341-16.924-7.02v-16.29c0-4.165-3.376-7.542-7.542-7.542h-27.338c-4.165 0-7.542 3.377-7.542 7.542v16.29c-5.962 1.679-11.633 4.052-16.924 7.02l-11.526-11.526c-2.945-2.945-7.72-2.945-10.665 0l-19.331 19.331c-2.945 2.945-2.945 7.72 0 10.666l11.526 11.526c-2.968 5.292-5.341 10.962-7.02 16.924h-16.29c-4.165 0-7.542 3.377-7.542 7.542v27.338c0 4.165 3.376 7.542 7.542 7.542h16.29c1.679 5.962 4.052 11.633 7.02 16.924l-11.526 11.526c-2.945 2.945-2.945 7.72 0 10.665l19.331 19.331c2.945 2.945 7.72 2.945 10.665 0l11.526-11.526c5.292 2.968 10.962 5.341 16.924 7.021v16.29c0 4.165 3.376 7.542 7.542 7.542h27.338c4.165 0 7.542-3.376 7.542-7.542v-16.29c5.962-1.679 11.633-4.052 16.924-7.021l11.526 11.526c2.945 2.945 7.72 2.945 10.665 0l19.331-19.331c2.945-2.945 2.945-7.72 0-10.665l-11.526-11.526c2.968-5.292 5.341-10.962 7.02-16.924h16.29c4.165 0 7.542-3.376 7.542-7.542v-27.338c0-4.165-3.377-7.542-7.542-7.542z" fill="#678d98"/><path d="m462.206 118.171h-24.752c-2.552-9.059-6.157-17.675-10.667-25.715l17.513-17.513c4.475-4.475 4.475-11.731 0-16.206l-29.373-29.372c-4.475-4.475-11.73-4.475-16.206 0l-17.513 17.513c-8.04-4.51-16.657-8.116-25.716-10.667v-24.752c.001-6.329-5.129-11.459-11.458-11.459h-41.539c-6.329 0-11.459 5.13-11.459 11.459v24.752c-9.059 2.551-17.675 6.157-25.716 10.667l-17.513-17.513c-4.475-4.475-11.73-4.475-16.206 0l-29.371 29.372c-4.475 4.475-4.475 11.731 0 16.206l17.513 17.513c-4.51 8.04-8.115 16.657-10.667 25.715h-24.752c-6.329 0-11.459 5.13-11.459 11.459v41.539c0 6.329 5.13 11.459 11.459 11.459h24.752c2.552 9.059 6.157 17.675 10.667 25.716l-17.513 17.513c-4.475 4.475-4.475 11.73 0 16.205l29.373 29.373c4.475 4.475 11.73 4.475 16.206 0l17.513-17.513c8.041 4.51 16.657 8.116 25.716 10.667v24.751c0 6.329 5.13 11.459 11.459 11.459h41.539c6.329 0 11.459-5.13 11.459-11.459v-24.751c9.059-2.552 17.675-6.157 25.716-10.667l17.513 17.513c4.475 4.475 11.731 4.475 16.206 0l29.373-29.373c4.475-4.475 4.475-11.73 0-16.205l-17.513-17.513c4.51-8.04 8.115-16.656 10.667-25.716h24.752c6.329 0 11.459-5.13 11.459-11.459v-41.539c-.003-6.328-5.134-11.459-11.462-11.459z" fill="#537983"/><circle cx="323.265" cy="150.4" fill="#c8effe" r="57.827"/><circle cx="397.795" cy="413.017" fill="#c8effe" r="38.058"/><g fill="#537983"><path d="m489.236 391.806h-16.29c-1.679-5.962-4.052-11.632-7.02-16.924l11.526-11.526c2.945-2.945 2.945-7.72 0-10.665l-19.331-19.331c-2.945-2.945-7.72-2.945-10.665 0l-9.268 9.268 10.063 10.063c2.945 2.945 2.945 7.72 0 10.665l-11.526 11.526c2.968 5.292 5.341 10.962 7.02 16.924h16.29c4.165 0 7.542 3.377 7.542 7.542v27.339c0 4.165-3.377 7.541-7.542 7.541h-16.29c-1.679 5.962-4.052 11.633-7.02 16.925l11.526 11.526c2.945 2.945 2.945 7.72 0 10.665l-10.063 10.063 9.268 9.268c2.945 2.945 7.72 2.945 10.665 0l19.331-19.331c2.945-2.945 2.945-7.72 0-10.665l-11.526-11.526c2.968-5.292 5.341-10.962 7.02-16.925h16.29c4.165 0 7.542-3.376 7.542-7.541v-27.339c0-4.165-3.377-7.542-7.542-7.542z"/><path d="m389.803 321.575v16.29c5.962 1.679 11.633 4.052 16.924 7.02l11.526-11.526c.238-.238.492-.45.752-.649v-11.135c0-4.165-3.376-7.541-7.542-7.541h-27.338c-.316 0-.626.026-.932.063 3.725.46 6.61 3.629 6.61 7.478z"/></g><g fill="#3e5959"><path d="m320.451 11.459v24.752c9.059 2.552 17.675 6.157 25.716 10.667l10.359-10.359c-.345-.101-.686-.21-1.033-.308v-24.752c.001-6.329-5.13-11.459-11.459-11.459h-35.042c6.329 0 11.459 5.13 11.459 11.459z"/><path d="m462.206 118.171h-24.752c-2.552-9.058-6.157-17.675-10.667-25.715l17.513-17.513c4.475-4.475 4.475-11.731 0-16.206l-29.372-29.372c-4.475-4.475-11.73-4.475-16.206 0l-9.418 9.419 19.954 19.954c4.475 4.475 4.475 11.73 0 16.206l-17.513 17.513c4.51 8.041 8.116 16.657 10.667 25.715h24.752c6.329 0 11.459 5.131 11.459 11.459v41.539c0 6.329-5.13 11.459-11.459 11.459h-24.752c-2.552 9.059-6.157 17.676-10.667 25.716l17.513 17.513c4.475 4.475 4.475 11.73 0 16.205l-19.954 19.954 9.418 9.419c4.475 4.475 11.731 4.475 16.206 0l29.372-29.373c4.475-4.475 4.475-11.73 0-16.205l-17.513-17.513c4.51-8.04 8.115-16.656 10.667-25.716h24.752c6.329 0 11.459-5.13 11.459-11.459v-41.54c0-6.328-5.131-11.459-11.459-11.459z"/></g><g fill="#99e6fc"><path d="m323.265 92.572c-5.043 0-9.935.653-14.601 1.871 24.84 6.486 43.226 29.113 43.226 55.956s-18.387 49.47-43.226 55.956c4.666 1.219 9.558 1.871 14.601 1.871 31.886 0 57.827-25.941 57.827-57.827 0-31.885-25.941-57.827-57.827-57.827z"/><path d="m397.795 374.959c-4.074 0-7.998.65-11.681 1.841 15.287 4.943 26.377 19.306 26.377 36.217s-11.09 31.274-26.377 36.217c3.683 1.191 7.607 1.841 11.681 1.841 20.985 0 38.058-17.073 38.058-38.058s-17.073-38.058-38.058-38.058z"/></g></g><g><path d="m200.367 408.259h-135.634-5.84-5.46c-21.103 0-38.211 17.108-38.211 38.211v65.53h223.356v-65.531c0-21.103-17.107-38.21-38.211-38.21z" fill="#c4e2ff"/><path d="m94.418 334.672v57.387l35.272 23.515 35.272-23.515v-57.387z" fill="#ffcebf"/><path d="m132.839 334.672v57.387 21.415l32.123-21.415v-57.387z" fill="#ffbfb1"/><path d="m206.208 408.259h-35.042c21.103 0 38.211 17.108 38.211 38.211v65.53h35.042v-65.531c0-21.103-17.108-38.21-38.211-38.21z" fill="#b3dafe"/><path d="m214.819 251.273c-.394 0-.786.014-1.176.03-6.737-40.283-41.756-70.986-83.953-70.986-42.196 0-77.216 30.703-83.953 70.986-.391-.016-.782-.03-1.176-.03-15.965 0-28.907 12.942-28.907 28.906s12.942 28.907 28.907 28.907c.394 0 .786-.014 1.176-.03 6.737 40.283 41.756 70.986 83.953 70.986 42.196 0 77.216-30.703 83.953-70.986.391.016.782.03 1.176.03 15.965 0 28.907-12.942 28.907-28.907s-12.943-28.906-28.907-28.906z" fill="#ffcebf"/><g><g><path d="m88.137 301.925c-4.267 0-7.726-3.459-7.726-7.726v-15.676c0-4.267 3.459-7.726 7.726-7.726s7.726 3.459 7.726 7.726v15.676c.001 4.267-3.459 7.726-7.726 7.726z" fill="#444"/></g><g><path d="m171.242 301.925c-4.267 0-7.726-3.459-7.726-7.726v-15.676c0-4.267 3.459-7.726 7.726-7.726s7.726 3.459 7.726 7.726v15.676c0 4.267-3.459 7.726-7.726 7.726z" fill="#444"/></g></g><g><path d="m129.69 346.614c-14.229 0-25.805-11.576-25.805-25.805 0-4.267 3.459-7.726 7.726-7.726s7.726 3.459 7.726 7.726c0 5.708 4.644 10.353 10.353 10.353s10.353-4.644 10.353-10.353c0-4.267 3.459-7.726 7.726-7.726s7.726 3.459 7.726 7.726c0 14.228-11.576 25.805-25.805 25.805z" fill="#ffb09e"/></g><path d="m94.418 392.059-29.815 16.199 42.064 31.353 23.023-24.037z" fill="#b3dafe"/><path d="m164.962 392.059 29.815 16.199-42.065 31.353-23.022-24.037z" fill="#b3dafe"/><path d="m129.69 415.574-18.079 18.876 6.552 25.679h23.053l6.553-25.679z" fill="#fd544d"/><path d="m118.163 460.129-10.189 51.871h43.428l-10.19-51.87h-23.049z" fill="#fd544d"/><path d="m214.819 251.273c-.395 0-.786.014-1.176.03-6.737-40.283-41.756-70.986-83.953-70.986-5.492 0-10.859.532-16.061 1.525 34.768 6.641 62.031 34.421 67.892 69.461.391-.016.782-.03 1.176-.03 15.965 0 28.907 12.942 28.907 28.906 0 15.965-12.942 28.907-28.907 28.907-.394 0-.786-.014-1.176-.03-5.86 35.04-33.124 62.82-67.892 69.461 5.202.993 10.569 1.525 16.061 1.525 42.196 0 77.216-30.702 83.953-70.985.391.016.782.03 1.176.03 15.965 0 28.907-12.942 28.907-28.907s-12.943-28.907-28.907-28.907z" fill="#ffbfb1"/><path d="m187.99 152.228c-6.364-10.205-17.685-17-30.597-17h-69.246c-35.281 0-63.881 28.601-63.881 63.881v52.193h120.914c12.372 0 23.651-4.661 32.191-12.316 5.971 7.502 15.175 12.316 25.508 12.316h32.233v-51.284c.001-26.173-21.036-47.422-47.122-47.79z" fill="#c4573a"/><g><path d="m187.99 152.228c-6.364-10.205-17.685-17-30.597-17h-35.043c12.913 0 24.233 6.795 30.597 17 26.087.368 47.123 21.616 47.123 47.79v51.151c.927.079 1.861.133 2.809.133h32.233v-51.284c.001-26.173-21.036-47.422-47.122-47.79z" fill="#a74b30"/></g><path d="m164.962 392.059-13.113 8.742 13.726 7.458-25.026 18.652 12.163 12.7 42.065-31.352z" fill="#8ac9fe"/></g><g><path d="m190.65 325.326h-11.72c-4.267 0-7.726-3.459-7.726-7.726s3.459-7.726 7.726-7.726h11.72c4.267 0 7.726 3.459 7.726 7.726s-3.459 7.726-7.726 7.726z" fill="#ffb09e"/></g><g><path d="m80.45 325.326h-11.72c-4.267 0-7.726-3.459-7.726-7.726s3.459-7.726 7.726-7.726h11.72c4.267 0 7.726 3.459 7.726 7.726s-3.459 7.726-7.726 7.726z" fill="#ffb09e"/></g></g></svg>